<svg width="255" height="28" viewBox="0 0 255 28" fill="none" xmlns="http://www.w3.org/2000/svg">
<path d="M37.304 10.236C37.016 10.236 36.776 10.14 36.584 9.948C36.392 9.756 36.296 9.516 36.296 9.228C36.296 8.928 36.392 8.688 36.584 8.508C36.776 8.316 37.016 8.22 37.304 8.22C37.592 8.22 37.832 8.316 38.024 8.508C38.216 8.688 38.312 8.928 38.312 9.228C38.312 9.516 38.216 9.756 38.024 9.948C37.832 10.14 37.592 10.236 37.304 10.236ZM36.8 20.982C36.68 20.982 36.62 20.922 36.62 20.802V12.054C36.62 11.934 36.68 11.874 36.8 11.874H37.718C37.838 11.874 37.898 11.934 37.898 12.054V20.802C37.898 20.922 37.838 20.982 37.718 20.982H36.8ZM44.8079 11.766C45.7679 11.766 46.5299 12.048 47.0939 12.612C47.6699 13.176 47.9579 13.932 47.9579 14.88V20.82C47.9579 20.94 47.8979 21 47.7779 21H46.8599C46.7399 21 46.6799 20.94 46.6799 20.82V15.132C46.6799 14.472 46.4759 13.932 46.0679 13.512C45.6719 13.092 45.1559 12.882 44.5199 12.882C43.8599 12.882 43.3259 13.086 42.9179 13.494C42.5099 13.902 42.3059 14.436 42.3059 15.096V20.82C42.3059 20.94 42.2459 21 42.1259 21H41.2079C41.0879 21 41.0279 20.94 41.0279 20.82V12.072C41.0279 11.952 41.0879 11.892 41.2079 11.892H42.1259C42.2459 11.892 42.3059 11.952 42.3059 12.072V12.846C42.3059 12.87 42.3119 12.888 42.3239 12.9C42.3479 12.912 42.3659 12.906 42.3779 12.882C42.9059 12.138 43.7159 11.766 44.8079 11.766ZM54.331 9.516C53.671 9.516 53.221 9.666 52.981 9.966C52.741 10.254 52.621 10.752 52.621 11.46V11.82C52.621 11.868 52.645 11.892 52.693 11.892H54.709C54.829 11.892 54.889 11.952 54.889 12.072V12.882C54.889 13.002 54.829 13.062 54.709 13.062H52.693C52.645 13.062 52.621 13.086 52.621 13.134V20.82C52.621 20.94 52.561 21 52.441 21H51.541C51.421 21 51.361 20.94 51.361 20.82V13.134C51.361 13.086 51.337 13.062 51.289 13.062H50.083C49.963 13.062 49.903 13.002 49.903 12.882V12.072C49.903 11.952 49.963 11.892 50.083 11.892H51.289C51.337 11.892 51.361 11.868 51.361 11.82V11.388C51.361 10.644 51.445 10.062 51.613 9.642C51.781 9.21 52.069 8.898 52.477 8.706C52.897 8.502 53.479 8.4 54.223 8.4H54.745C54.865 8.4 54.925 8.46 54.925 8.58V9.336C54.925 9.456 54.865 9.516 54.745 9.516H54.331ZM59.7773 21.144C58.9133 21.144 58.1693 20.922 57.5453 20.478C56.9213 20.034 56.4893 19.422 56.2493 18.642C56.0813 18.09 55.9973 17.352 55.9973 16.428C55.9973 15.504 56.0813 14.772 56.2493 14.232C56.4773 13.464 56.9033 12.858 57.5273 12.414C58.1513 11.97 58.9073 11.748 59.7953 11.748C60.6473 11.748 61.3793 11.97 61.9913 12.414C62.6153 12.858 63.0413 13.458 63.2693 14.214C63.4373 14.73 63.5213 15.468 63.5213 16.428C63.5213 17.4 63.4373 18.138 63.2693 18.642C63.0413 19.422 62.6153 20.034 61.9913 20.478C61.3793 20.922 60.6413 21.144 59.7773 21.144ZM59.7773 20.028C60.3533 20.028 60.8453 19.872 61.2533 19.56C61.6613 19.236 61.9373 18.804 62.0813 18.264C62.1893 17.832 62.2433 17.226 62.2433 16.446C62.2433 15.654 62.1953 15.048 62.0993 14.628C61.9553 14.088 61.6733 13.662 61.2533 13.35C60.8453 13.026 60.3473 12.864 59.7593 12.864C59.1713 12.864 58.6733 13.026 58.2653 13.35C57.8573 13.662 57.5813 14.088 57.4373 14.628C57.3413 15.048 57.2933 15.654 57.2933 16.446C57.2933 17.238 57.3413 17.844 57.4373 18.264C57.5693 18.804 57.8393 19.236 58.2473 19.56C58.6673 19.872 59.1773 20.028 59.7773 20.028ZM72.8439 9.894C73.9359 9.894 74.9019 10.116 75.7419 10.56C76.5939 11.004 77.2479 11.628 77.7039 12.432C78.1719 13.236 78.4059 14.154 78.4059 15.186C78.4059 15.378 78.3819 15.69 78.3339 16.122C78.1899 17.226 77.8479 18.084 77.3079 18.696C76.7679 19.308 76.0899 19.614 75.2739 19.614C74.8539 19.614 74.4819 19.536 74.1579 19.38C73.8459 19.224 73.6059 18.996 73.4379 18.696C73.4259 18.636 73.3959 18.63 73.3479 18.678C73.1199 18.978 72.8379 19.206 72.5019 19.362C72.1779 19.518 71.8239 19.596 71.4399 19.596C70.7919 19.596 70.2639 19.44 69.8559 19.128C69.4479 18.804 69.2139 18.384 69.1539 17.868C69.1419 17.796 69.1359 17.676 69.1359 17.508C69.1359 17.16 69.1719 16.764 69.2439 16.32C69.3159 15.636 69.4239 15.114 69.5679 14.754C69.7599 14.226 70.0779 13.806 70.5219 13.494C70.9659 13.182 71.4639 13.026 72.0159 13.026C72.3519 13.026 72.6519 13.086 72.9159 13.206C73.1799 13.314 73.3959 13.476 73.5639 13.692C73.5879 13.716 73.6059 13.728 73.6179 13.728C73.6419 13.728 73.6539 13.71 73.6539 13.674L73.7079 13.278C73.7199 13.17 73.7799 13.116 73.8879 13.116H74.4639C74.5239 13.116 74.5719 13.14 74.6079 13.188C74.6439 13.224 74.6559 13.266 74.6439 13.314L74.1399 17.076C74.1279 17.136 74.1219 17.232 74.1219 17.364C74.1219 17.772 74.2359 18.108 74.4639 18.372C74.6919 18.636 74.9919 18.768 75.3639 18.768C75.8679 18.768 76.2939 18.54 76.6419 18.084C77.0019 17.628 77.2419 16.992 77.3619 16.176C77.4099 15.888 77.4339 15.57 77.4339 15.222C77.4339 14.31 77.2359 13.518 76.8399 12.846C76.4439 12.174 75.8919 11.658 75.1839 11.298C74.4879 10.938 73.6839 10.758 72.7719 10.758C71.7399 10.758 70.7619 10.992 69.8379 11.46C68.9259 11.928 68.1819 12.63 67.6059 13.566C67.0419 14.502 66.7599 15.636 66.7599 16.968C66.7599 17.904 66.9399 18.738 67.2999 19.47C67.6599 20.202 68.1819 20.772 68.8659 21.18C69.5499 21.588 70.3659 21.792 71.3139 21.792C71.9139 21.792 72.4899 21.72 73.0419 21.576C73.6059 21.432 74.0379 21.258 74.3379 21.054C74.3739 21.03 74.4159 21.018 74.4639 21.018C74.5119 21.018 74.5539 21.042 74.5899 21.09L74.8779 21.45C74.9139 21.486 74.9319 21.528 74.9319 21.576C74.9319 21.624 74.9019 21.666 74.8419 21.702C74.4579 22.002 73.9239 22.236 73.2399 22.404C72.5679 22.584 71.8839 22.674 71.1879 22.674C70.0959 22.674 69.1419 22.428 68.3259 21.936C67.5099 21.456 66.8859 20.778 66.4539 19.902C66.0219 19.026 65.8059 18.018 65.8059 16.878C65.8059 15.438 66.1419 14.19 66.8139 13.134C67.4859 12.078 68.3619 11.274 69.4419 10.722C70.5219 10.17 71.6559 9.894 72.8439 9.894ZM73.0419 17.598C73.1019 17.466 73.1499 17.322 73.1859 17.166C73.2219 17.01 73.2639 16.722 73.3119 16.302C73.3719 15.678 73.3959 15.252 73.3839 15.024C73.3719 14.688 73.2459 14.406 73.0059 14.178C72.7779 13.95 72.4719 13.836 72.0879 13.836C71.7039 13.836 71.3619 13.944 71.0619 14.16C70.7739 14.376 70.5579 14.658 70.4139 15.006C70.3539 15.126 70.3059 15.288 70.2699 15.492C70.2339 15.696 70.1919 15.978 70.1439 16.338C70.0839 16.77 70.0539 17.094 70.0539 17.31C70.0539 17.442 70.0599 17.538 70.0719 17.598C70.0959 17.946 70.2339 18.228 70.4859 18.444C70.7379 18.66 71.0619 18.768 71.4579 18.768C71.8419 18.768 72.1719 18.66 72.4479 18.444C72.7239 18.228 72.9219 17.946 73.0419 17.598ZM81.6845 10.236C81.3845 10.236 81.1385 10.14 80.9465 9.948C80.7665 9.756 80.6765 9.516 80.6765 9.228C80.6765 8.928 80.7665 8.688 80.9465 8.508C81.1385 8.316 81.3845 8.22 81.6845 8.22C81.9725 8.22 82.2125 8.316 82.4045 8.508C82.5965 8.688 82.6925 8.928 82.6925 9.228C82.6925 9.516 82.5965 9.756 82.4045 9.948C82.2125 10.14 81.9725 10.236 81.6845 10.236ZM79.1105 24.744C78.9905 24.744 78.9305 24.684 78.9305 24.564V23.826C78.9305 23.706 78.9905 23.646 79.1105 23.646C80.3945 23.634 81.0365 23.016 81.0365 21.792V12.072C81.0365 11.952 81.0965 11.892 81.2165 11.892H82.1345C82.2545 11.892 82.3145 11.952 82.3145 12.072V21.792C82.3145 22.812 82.0625 23.556 81.5585 24.024C81.0545 24.492 80.2385 24.732 79.1105 24.744ZM88.8867 21.144C88.0227 21.144 87.2787 20.922 86.6547 20.478C86.0307 20.034 85.5987 19.422 85.3587 18.642C85.1907 18.09 85.1067 17.352 85.1067 16.428C85.1067 15.504 85.1907 14.772 85.3587 14.232C85.5867 13.464 86.0127 12.858 86.6367 12.414C87.2607 11.97 88.0167 11.748 88.9047 11.748C89.7567 11.748 90.4887 11.97 91.1007 12.414C91.7247 12.858 92.1507 13.458 92.3787 14.214C92.5467 14.73 92.6307 15.468 92.6307 16.428C92.6307 17.4 92.5467 18.138 92.3787 18.642C92.1507 19.422 91.7247 20.034 91.1007 20.478C90.4887 20.922 89.7507 21.144 88.8867 21.144ZM88.8867 20.028C89.4627 20.028 89.9547 19.872 90.3627 19.56C90.7707 19.236 91.0467 18.804 91.1907 18.264C91.2987 17.832 91.3527 17.226 91.3527 16.446C91.3527 15.654 91.3047 15.048 91.2087 14.628C91.0647 14.088 90.7827 13.662 90.3627 13.35C89.9547 13.026 89.4567 12.864 88.8687 12.864C88.2807 12.864 87.7827 13.026 87.3747 13.35C86.9667 13.662 86.6907 14.088 86.5467 14.628C86.4507 15.048 86.4027 15.654 86.4027 16.446C86.4027 17.238 86.4507 17.844 86.5467 18.264C86.6787 18.804 86.9487 19.236 87.3567 19.56C87.7767 19.872 88.2867 20.028 88.8867 20.028ZM99.0013 11.766C99.9613 11.766 100.723 12.048 101.287 12.612C101.863 13.176 102.151 13.932 102.151 14.88V20.82C102.151 20.94 102.091 21 101.971 21H101.053C100.933 21 100.873 20.94 100.873 20.82V15.132C100.873 14.472 100.669 13.932 100.261 13.512C99.8653 13.092 99.3493 12.882 98.7133 12.882C98.0533 12.882 97.5193 13.086 97.1113 13.494C96.7033 13.902 96.4993 14.436 96.4993 15.096V20.82C96.4993 20.94 96.4393 21 96.3193 21H95.4013C95.2813 21 95.2213 20.94 95.2213 20.82V8.58C95.2213 8.46 95.2813 8.4 95.4013 8.4H96.3193C96.4393 8.4 96.4993 8.46 96.4993 8.58V12.846C96.4993 12.87 96.5053 12.888 96.5173 12.9C96.5413 12.912 96.5593 12.906 96.5713 12.882C97.0993 12.138 97.9093 11.766 99.0013 11.766ZM108.704 11.766C109.664 11.766 110.426 12.048 110.99 12.612C111.566 13.176 111.854 13.932 111.854 14.88V20.82C111.854 20.94 111.794 21 111.674 21H110.756C110.636 21 110.576 20.94 110.576 20.82V15.132C110.576 14.472 110.372 13.932 109.964 13.512C109.568 13.092 109.052 12.882 108.416 12.882C107.756 12.882 107.222 13.086 106.814 13.494C106.406 13.902 106.202 14.436 106.202 15.096V20.82C106.202 20.94 106.142 21 106.022 21H105.104C104.984 21 104.924 20.94 104.924 20.82V12.072C104.924 11.952 104.984 11.892 105.104 11.892H106.022C106.142 11.892 106.202 11.952 106.202 12.072V12.846C106.202 12.87 106.208 12.888 106.22 12.9C106.244 12.912 106.262 12.906 106.274 12.882C106.802 12.138 107.612 11.766 108.704 11.766ZM117.778 11.748C118.858 11.748 119.692 12.024 120.28 12.576C120.868 13.128 121.162 13.86 121.162 14.772V20.82C121.162 20.94 121.102 21 120.982 21H120.064C119.944 21 119.884 20.94 119.884 20.82V20.082C119.884 20.058 119.872 20.04 119.848 20.028C119.836 20.016 119.818 20.022 119.794 20.046C119.494 20.406 119.104 20.682 118.624 20.874C118.144 21.054 117.61 21.144 117.022 21.144C116.17 21.144 115.456 20.928 114.88 20.496C114.304 20.064 114.016 19.404 114.016 18.516C114.016 17.616 114.34 16.908 114.988 16.392C115.648 15.864 116.56 15.6 117.724 15.6H119.812C119.86 15.6 119.884 15.576 119.884 15.528V14.844C119.884 14.232 119.71 13.752 119.362 13.404C119.026 13.044 118.498 12.864 117.778 12.864C117.202 12.864 116.734 12.978 116.374 13.206C116.014 13.422 115.792 13.728 115.708 14.124C115.672 14.244 115.6 14.298 115.492 14.286L114.52 14.16C114.388 14.136 114.334 14.088 114.358 14.016C114.454 13.344 114.814 12.798 115.438 12.378C116.062 11.958 116.842 11.748 117.778 11.748ZM117.274 20.046C117.982 20.046 118.594 19.872 119.11 19.524C119.626 19.164 119.884 18.684 119.884 18.084V16.68C119.884 16.632 119.86 16.608 119.812 16.608H117.922C117.13 16.608 116.494 16.77 116.014 17.094C115.534 17.418 115.294 17.868 115.294 18.444C115.294 18.972 115.474 19.374 115.833 19.65C116.206 19.914 116.686 20.046 117.274 20.046ZM126.809 21.09C126.137 21.09 125.537 20.982 125.009 20.766C124.493 20.55 124.091 20.262 123.803 19.902C123.527 19.542 123.389 19.14 123.389 18.696V18.48C123.389 18.36 123.449 18.3 123.569 18.3H124.433C124.553 18.3 124.613 18.36 124.613 18.48V18.624C124.613 19.02 124.817 19.368 125.225 19.668C125.645 19.956 126.167 20.1 126.791 20.1C127.415 20.1 127.919 19.962 128.303 19.686C128.687 19.398 128.879 19.038 128.879 18.606C128.879 18.306 128.777 18.06 128.573 17.868C128.381 17.676 128.147 17.526 127.871 17.418C127.607 17.31 127.193 17.172 126.629 17.004C125.957 16.812 125.405 16.62 124.973 16.428C124.541 16.236 124.175 15.972 123.875 15.636C123.587 15.288 123.443 14.85 123.443 14.322C123.443 13.554 123.743 12.942 124.343 12.486C124.943 12.03 125.735 11.802 126.719 11.802C127.379 11.802 127.961 11.91 128.465 12.126C128.981 12.342 129.377 12.642 129.653 13.026C129.929 13.398 130.067 13.818 130.067 14.286V14.34C130.067 14.46 130.007 14.52 129.887 14.52H129.041C128.921 14.52 128.861 14.46 128.861 14.34V14.286C128.861 13.878 128.663 13.536 128.267 13.26C127.883 12.984 127.361 12.846 126.701 12.846C126.089 12.846 125.597 12.972 125.225 13.224C124.853 13.464 124.667 13.8 124.667 14.232C124.667 14.64 124.847 14.952 125.207 15.168C125.567 15.384 126.125 15.6 126.881 15.816C127.577 16.02 128.141 16.212 128.573 16.392C129.005 16.572 129.377 16.836 129.689 17.184C130.001 17.52 130.157 17.964 130.157 18.516C130.157 19.296 129.851 19.92 129.239 20.388C128.627 20.856 127.817 21.09 126.809 21.09ZM138.103 12.072C138.103 11.952 138.163 11.892 138.283 11.892H139.201C139.321 11.892 139.381 11.952 139.381 12.072V20.694C139.381 22.038 138.991 23.022 138.211 23.646C137.443 24.27 136.381 24.582 135.025 24.582C134.749 24.582 134.539 24.576 134.395 24.564C134.275 24.552 134.215 24.486 134.215 24.366L134.251 23.538C134.251 23.478 134.269 23.43 134.305 23.394C134.341 23.37 134.383 23.364 134.431 23.376L134.917 23.394C136.033 23.394 136.843 23.172 137.347 22.728C137.851 22.296 138.103 21.606 138.103 20.658V19.992C138.103 19.968 138.091 19.956 138.067 19.956C138.055 19.944 138.037 19.95 138.013 19.974C137.461 20.694 136.675 21.054 135.655 21.054C134.875 21.054 134.179 20.844 133.567 20.424C132.967 20.004 132.565 19.41 132.361 18.642C132.217 18.15 132.145 17.418 132.145 16.446C132.145 15.918 132.157 15.474 132.181 15.114C132.217 14.754 132.283 14.43 132.379 14.142C132.595 13.422 132.985 12.846 133.549 12.414C134.113 11.97 134.791 11.748 135.583 11.748C136.651 11.748 137.461 12.102 138.013 12.81C138.037 12.834 138.055 12.84 138.067 12.828C138.091 12.816 138.103 12.798 138.103 12.774V12.072ZM138.013 18.246C138.049 18.066 138.073 17.844 138.085 17.58C138.097 17.316 138.103 16.932 138.103 16.428C138.103 15.816 138.097 15.408 138.085 15.204C138.073 14.988 138.043 14.79 137.995 14.61C137.899 14.106 137.659 13.692 137.275 13.368C136.903 13.032 136.429 12.864 135.853 12.864C135.289 12.864 134.809 13.026 134.413 13.35C134.029 13.674 133.759 14.094 133.603 14.61C133.483 14.994 133.423 15.594 133.423 16.41C133.423 17.286 133.483 17.892 133.603 18.228C133.723 18.732 133.981 19.152 134.377 19.488C134.785 19.812 135.277 19.974 135.853 19.974C136.441 19.974 136.921 19.812 137.293 19.488C137.677 19.164 137.917 18.75 138.013 18.246ZM145.9 11.766C146.86 11.766 147.622 12.048 148.186 12.612C148.762 13.176 149.05 13.932 149.05 14.88V20.82C149.05 20.94 148.99 21 148.87 21H147.952C147.832 21 147.772 20.94 147.772 20.82V15.132C147.772 14.472 147.568 13.932 147.16 13.512C146.764 13.092 146.248 12.882 145.612 12.882C144.952 12.882 144.418 13.086 144.01 13.494C143.602 13.902 143.398 14.436 143.398 15.096V20.82C143.398 20.94 143.338 21 143.218 21H142.3C142.18 21 142.12 20.94 142.12 20.82V8.58C142.12 8.46 142.18 8.4 142.3 8.4H143.218C143.338 8.4 143.398 8.46 143.398 8.58V12.846C143.398 12.87 143.404 12.888 143.416 12.9C143.44 12.912 143.458 12.906 143.47 12.882C143.998 12.138 144.808 11.766 145.9 11.766ZM154.973 11.748C156.053 11.748 156.887 12.024 157.475 12.576C158.063 13.128 158.357 13.86 158.357 14.772V20.82C158.357 20.94 158.297 21 158.177 21H157.259C157.139 21 157.079 20.94 157.079 20.82V20.082C157.079 20.058 157.067 20.04 157.043 20.028C157.031 20.016 157.013 20.022 156.989 20.046C156.689 20.406 156.299 20.682 155.819 20.874C155.339 21.054 154.805 21.144 154.217 21.144C153.365 21.144 152.651 20.928 152.075 20.496C151.499 20.064 151.211 19.404 151.211 18.516C151.211 17.616 151.535 16.908 152.183 16.392C152.843 15.864 153.755 15.6 154.919 15.6H157.007C157.055 15.6 157.079 15.576 157.079 15.528V14.844C157.079 14.232 156.905 13.752 156.557 13.404C156.221 13.044 155.693 12.864 154.973 12.864C154.397 12.864 153.929 12.978 153.569 13.206C153.209 13.422 152.987 13.728 152.903 14.124C152.867 14.244 152.795 14.298 152.687 14.286L151.715 14.16C151.583 14.136 151.529 14.088 151.553 14.016C151.649 13.344 152.009 12.798 152.633 12.378C153.257 11.958 154.037 11.748 154.973 11.748ZM154.469 20.046C155.177 20.046 155.789 19.872 156.305 19.524C156.821 19.164 157.079 18.684 157.079 18.084V16.68C157.079 16.632 157.055 16.608 157.007 16.608H155.117C154.325 16.608 153.689 16.77 153.209 17.094C152.729 17.418 152.489 17.868 152.489 18.444C152.489 18.972 152.669 19.374 153.029 19.65C153.401 19.914 153.881 20.046 154.469 20.046ZM164.688 11.802C165.084 11.802 165.426 11.88 165.714 12.036C165.81 12.084 165.846 12.162 165.822 12.27L165.624 13.152C165.588 13.272 165.51 13.308 165.39 13.26C165.186 13.176 164.952 13.134 164.688 13.134L164.454 13.152C163.83 13.176 163.314 13.41 162.906 13.854C162.498 14.286 162.294 14.838 162.294 15.51V20.82C162.294 20.94 162.234 21 162.114 21H161.196C161.076 21 161.016 20.94 161.016 20.82V12.072C161.016 11.952 161.076 11.892 161.196 11.892H162.114C162.234 11.892 162.294 11.952 162.294 12.072V13.17C162.294 13.206 162.3 13.23 162.312 13.242C162.336 13.242 162.354 13.23 162.366 13.206C162.618 12.762 162.936 12.42 163.32 12.18C163.716 11.928 164.172 11.802 164.688 11.802ZM176.789 11.766C177.689 11.766 178.397 12.036 178.913 12.576C179.441 13.116 179.705 13.854 179.705 14.79V20.82C179.705 20.94 179.645 21 179.525 21H178.625C178.505 21 178.445 20.94 178.445 20.82V15.042C178.445 14.382 178.253 13.86 177.869 13.476C177.497 13.08 177.005 12.882 176.393 12.882C175.757 12.882 175.241 13.074 174.845 13.458C174.461 13.842 174.269 14.358 174.269 15.006V20.82C174.269 20.94 174.209 21 174.089 21H173.171C173.051 21 172.991 20.94 172.991 20.82V15.042C172.991 14.382 172.805 13.86 172.433 13.476C172.061 13.08 171.563 12.882 170.939 12.882C170.303 12.882 169.793 13.074 169.409 13.458C169.037 13.842 168.851 14.358 168.851 15.006V20.82C168.851 20.94 168.791 21 168.671 21H167.753C167.633 21 167.573 20.94 167.573 20.82V12.072C167.573 11.952 167.633 11.892 167.753 11.892H168.671C168.791 11.892 168.851 11.952 168.851 12.072V12.792C168.851 12.816 168.857 12.834 168.869 12.846C168.893 12.846 168.917 12.834 168.941 12.81C169.205 12.462 169.541 12.204 169.949 12.036C170.369 11.856 170.831 11.766 171.335 11.766C171.959 11.766 172.493 11.892 172.937 12.144C173.381 12.396 173.717 12.762 173.945 13.242C173.969 13.302 173.999 13.302 174.035 13.242C174.299 12.75 174.671 12.384 175.151 12.144C175.631 11.892 176.177 11.766 176.789 11.766ZM187.99 8.58C187.99 8.46 188.05 8.4 188.17 8.4H189.088C189.208 8.4 189.268 8.46 189.268 8.58V20.82C189.268 20.94 189.208 21 189.088 21H188.17C188.05 21 187.99 20.94 187.99 20.82V20.064C187.99 20.04 187.978 20.028 187.954 20.028C187.942 20.016 187.924 20.022 187.9 20.046C187.636 20.394 187.306 20.664 186.91 20.856C186.526 21.048 186.094 21.144 185.614 21.144C184.774 21.144 184.066 20.928 183.49 20.496C182.926 20.064 182.536 19.476 182.32 18.732C182.152 18.192 182.068 17.43 182.068 16.446C182.068 15.45 182.14 14.706 182.284 14.214C182.5 13.446 182.896 12.846 183.472 12.414C184.048 11.97 184.762 11.748 185.614 11.748C186.082 11.748 186.514 11.844 186.91 12.036C187.306 12.216 187.636 12.48 187.9 12.828C187.924 12.852 187.942 12.864 187.954 12.864C187.978 12.852 187.99 12.834 187.99 12.81V8.58ZM187.666 18.642C187.774 18.402 187.852 18.12 187.9 17.796C187.948 17.472 187.972 17.022 187.972 16.446C187.972 15.87 187.948 15.42 187.9 15.096C187.852 14.76 187.768 14.466 187.648 14.214C187.504 13.806 187.264 13.482 186.928 13.242C186.604 12.99 186.214 12.864 185.758 12.864C185.278 12.864 184.864 12.984 184.516 13.224C184.168 13.464 183.916 13.782 183.76 14.178C183.616 14.442 183.508 14.742 183.436 15.078C183.376 15.402 183.346 15.858 183.346 16.446C183.346 17.01 183.37 17.454 183.418 17.778C183.466 18.09 183.55 18.372 183.67 18.624C183.814 19.056 184.066 19.398 184.426 19.65C184.798 19.902 185.236 20.028 185.74 20.028C186.22 20.028 186.622 19.902 186.946 19.65C187.27 19.398 187.51 19.062 187.666 18.642ZM193.209 20.964C192.909 20.964 192.663 20.868 192.471 20.676C192.291 20.484 192.201 20.244 192.201 19.956C192.201 19.656 192.291 19.416 192.471 19.236C192.663 19.044 192.909 18.948 193.209 18.948C193.497 18.948 193.737 19.044 193.929 19.236C194.121 19.416 194.217 19.656 194.217 19.956C194.217 20.244 194.121 20.484 193.929 20.676C193.737 20.868 193.497 20.964 193.209 20.964ZM200.226 21.144C199.362 21.144 198.618 20.922 197.994 20.478C197.382 20.022 196.962 19.41 196.734 18.642C196.578 18.114 196.5 17.37 196.5 16.41C196.5 15.546 196.578 14.814 196.734 14.214C196.95 13.47 197.37 12.876 197.994 12.432C198.618 11.976 199.362 11.748 200.226 11.748C201.102 11.748 201.858 11.97 202.494 12.414C203.142 12.858 203.562 13.41 203.754 14.07C203.814 14.286 203.85 14.466 203.862 14.61V14.646C203.862 14.73 203.808 14.784 203.7 14.808L202.8 14.934H202.764C202.68 14.934 202.626 14.88 202.602 14.772L202.548 14.502C202.44 14.046 202.176 13.662 201.756 13.35C201.336 13.026 200.826 12.864 200.226 12.864C199.626 12.864 199.122 13.026 198.714 13.35C198.318 13.662 198.06 14.082 197.94 14.61C197.832 15.066 197.778 15.672 197.778 16.428C197.778 17.22 197.832 17.832 197.94 18.264C198.06 18.804 198.318 19.236 198.714 19.56C199.122 19.872 199.626 20.028 200.226 20.028C200.814 20.028 201.318 19.878 201.738 19.578C202.17 19.266 202.44 18.87 202.548 18.39V18.318L202.566 18.246C202.578 18.126 202.65 18.078 202.782 18.102L203.664 18.246C203.784 18.27 203.838 18.336 203.826 18.444L203.754 18.804C203.574 19.5 203.16 20.064 202.512 20.496C201.864 20.928 201.102 21.144 200.226 21.144ZM209.56 21.144C208.696 21.144 207.952 20.922 207.328 20.478C206.704 20.034 206.272 19.422 206.032 18.642C205.864 18.09 205.78 17.352 205.78 16.428C205.78 15.504 205.864 14.772 206.032 14.232C206.26 13.464 206.686 12.858 207.31 12.414C207.934 11.97 208.69 11.748 209.578 11.748C210.43 11.748 211.162 11.97 211.774 12.414C212.398 12.858 212.824 13.458 213.052 14.214C213.22 14.73 213.304 15.468 213.304 16.428C213.304 17.4 213.22 18.138 213.052 18.642C212.824 19.422 212.398 20.034 211.774 20.478C211.162 20.922 210.424 21.144 209.56 21.144ZM209.56 20.028C210.136 20.028 210.628 19.872 211.036 19.56C211.444 19.236 211.72 18.804 211.864 18.264C211.972 17.832 212.026 17.226 212.026 16.446C212.026 15.654 211.978 15.048 211.882 14.628C211.738 14.088 211.456 13.662 211.036 13.35C210.628 13.026 210.13 12.864 209.542 12.864C208.954 12.864 208.456 13.026 208.048 13.35C207.64 13.662 207.364 14.088 207.22 14.628C207.124 15.048 207.076 15.654 207.076 16.446C207.076 17.238 207.124 17.844 207.22 18.264C207.352 18.804 207.622 19.236 208.03 19.56C208.45 19.872 208.96 20.028 209.56 20.028ZM225.111 11.766C226.011 11.766 226.719 12.036 227.235 12.576C227.763 13.116 228.027 13.854 228.027 14.79V20.82C228.027 20.94 227.967 21 227.847 21H226.947C226.827 21 226.767 20.94 226.767 20.82V15.042C226.767 14.382 226.575 13.86 226.191 13.476C225.819 13.08 225.327 12.882 224.715 12.882C224.079 12.882 223.563 13.074 223.167 13.458C222.783 13.842 222.591 14.358 222.591 15.006V20.82C222.591 20.94 222.531 21 222.411 21H221.493C221.373 21 221.313 20.94 221.313 20.82V15.042C221.313 14.382 221.127 13.86 220.755 13.476C220.383 13.08 219.885 12.882 219.261 12.882C218.625 12.882 218.115 13.074 217.731 13.458C217.359 13.842 217.173 14.358 217.173 15.006V20.82C217.173 20.94 217.113 21 216.993 21H216.075C215.955 21 215.895 20.94 215.895 20.82V12.072C215.895 11.952 215.955 11.892 216.075 11.892H216.993C217.113 11.892 217.173 11.952 217.173 12.072V12.792C217.173 12.816 217.179 12.834 217.191 12.846C217.215 12.846 217.239 12.834 217.263 12.81C217.527 12.462 217.863 12.204 218.271 12.036C218.691 11.856 219.153 11.766 219.657 11.766C220.281 11.766 220.815 11.892 221.259 12.144C221.703 12.396 222.039 12.762 222.267 13.242C222.291 13.302 222.321 13.302 222.357 13.242C222.621 12.75 222.993 12.384 223.473 12.144C223.953 11.892 224.499 11.766 225.111 11.766Z" fill="#112A63"/>
<rect x="0.5" y="2.5" width="23.7059" height="23" rx="2.5" stroke="#112A63"/>
<path d="M19.8889 13.2267C19.7556 13.2356 19.6311 13.28 19.5422 13.3778L18.6533 14.2667L20.4756 16.0444L21.3644 15.1556C21.56 14.9689 21.56 14.6578 21.3644 14.4711L20.2622 13.3778C20.1734 13.2856 20.0523 13.2315 19.9244 13.2267M18.1467 14.7822L12.7778 20.1689V22H14.6089L19.9956 16.6044M19 6H4.77778C4.30628 6 3.8541 6.1873 3.5207 6.5207C3.1873 6.8541 3 7.30628 3 7.77778V18.4444C3 18.9159 3.1873 19.3681 3.5207 19.7015C3.8541 20.0349 4.30628 20.2222 4.77778 20.2222H11V19.4311L18.3244 12.1244C18.7422 11.6889 19.32 11.4489 19.9244 11.4489C20.2267 11.4489 20.5289 11.5022 20.8133 11.6178V7.77778C20.8133 6.78222 19.9956 6 19 6ZM19 9.55556L11.8889 14L4.77778 9.55556V7.77778L11.8889 12.2222L19 7.77778" fill="#112A63"/>
</svg>
