<?xml version="1.0" encoding="UTF-8"?>
<svg id="Layer_2" data-name="Layer 2" xmlns="http://www.w3.org/2000/svg" viewBox="0 0 456.14 120.54">
  <defs>
    <style>
      .cls-1 {
        fill: #112a63;
      }

      .cls-2 {
        letter-spacing: .1em;
      }

      .cls-2, .cls-3, .cls-4, .cls-5 {
        font-family: Barlow-Light, Barlow;
        font-weight: 300;
      }

      .cls-6, .cls-7 {
        fill: #282828;
      }

      .cls-8, .cls-9, .cls-10, .cls-11 {
        font-family: Barlow-Bold, Barlow;
        font-weight: 700;
      }

      .cls-8, .cls-4 {
        letter-spacing: .1em;
      }

      .cls-9 {
        letter-spacing: .09em;
      }

      .cls-3 {
        letter-spacing: .08em;
      }

      .cls-12 {
        fill: #3190e4;
      }

      .cls-7 {
        font-size: 30.29px;
      }

      .cls-10 {
        letter-spacing: .02em;
      }

      .cls-11 {
        letter-spacing: .1em;
      }

      .cls-5 {
        letter-spacing: .09em;
      }
    </style>
  </defs>
  <g id="OBJECTS">
    <g>
      <g>
        <g>
          <path class="cls-6" d="m75.07,72.43c.63,1.9-.39,3.96-2.3,4.6-1.9.63-3.96-.39-4.6-2.3-.63-1.9.39-3.96,2.3-4.6,1.9-.63,3.96.39,4.6,2.3Z"/>
          <path class="cls-6" d="m76.66,60.38c.54,1.62-.34,3.38-1.96,3.92-1.62.54-3.38-.34-3.92-1.96-.54-1.62.34-3.38,1.96-3.92s3.38.34,3.92,1.96Z"/>
          <path class="cls-6" d="m72.55,84.77c.54,1.62-.34,3.38-1.96,3.92-1.62.54-3.38-.34-3.92-1.96-.54-1.62.34-3.38,1.96-3.92s3.38.34,3.92,1.96Z"/>
          <path class="cls-6" d="m75.3,49.74c.46,1.39-.29,2.89-1.67,3.35s-2.89-.29-3.35-1.67.29-2.89,1.67-3.35c1.39-.46,2.89.29,3.35,1.67Z"/>
          <path class="cls-6" d="m69.19,97c.46,1.39-.29,2.89-1.67,3.35s-2.89-.29-3.35-1.67c-.46-1.39.29-2.89,1.67-3.35,1.39-.46,2.89.29,3.35,1.67Z"/>
          <path class="cls-6" d="m71.42,40.84c0,1-.81,1.82-1.82,1.82s-1.82-.81-1.82-1.82.81-1.82,1.82-1.82,1.82.81,1.82,1.82Z"/>
          <path class="cls-6" d="m65.85,108.21c0,1-.81,1.82-1.82,1.82s-1.82-.81-1.82-1.82.81-1.82,1.82-1.82,1.82.81,1.82,1.82Z"/>
        </g>
        <path class="cls-1" d="m71.62,25.13l5.3,7.78c4.07,1.41,15.91,11.14,15.91,11.14,0,0,.88.35,6.72,3.54,5.83,3.18,7.43,18.72,7.43,18.72,0,0,1.59,3.38,1.59,6.74s-.35,11.67,0,16.8c.18,2.58.85,8.12,1.47,12.98,9.47-10.97,15.21-25.25,15.21-40.88,0-31.45-23.18-57.47-53.39-61.94,2.63,3.05,3.77,6.89,4.17,9.04.88,4.77-4.42,16.09-4.42,16.09Z"/>
        <path class="cls-1" d="m95.67,104.52c.18-3.01.18-5.13,0-7.78-.11-1.68-1.58-7.79-2.64-12.03-.44-1.76-2.7-2.27-3.85-.86l-2.19,2.67c-1.51,1.84-2.58,3.99-3.15,6.29l-3.02,12.23,3.94,15.48c4-1.51,7.79-3.42,11.35-5.67-.28-4.32-.52-8.88-.44-10.34Z"/>
        <path class="cls-12" d="m28.48,64.39s-1.06-5.66,1.06-10.61c3.8-8.87,16.27-9.02,16.27-9.02,3.36-3.01,10.43-6.37,10.43-6.37h0c0-1.78-1.55-3.16-3.32-2.95-2.48.3-5.59.65-6.4.65-1.41,0-1.59-13.62-1.59-13.62h-2.48c1.55-12.21,3.76-18.3,6.11-21.56C20.75,7.31,0,32.2,0,61.94c0,18.32,7.87,34.81,20.42,46.26.94-7.55,3.82-16.41,3.82-16.41.35-9.73,4.24-27.41,4.24-27.41Z"/>
        <path class="cls-12" d="m40.91,86.89c-.26-1.38-2.19-1.52-2.64-.19-1.05,3.12-2.25,7.25-2.54,10.57-.38,4.43-1.94,14.47-2.79,19.82,1.48.8,2.99,1.52,4.54,2.2,1.32-10.16,4.62-24.13,4.62-25.21,0-.76-.62-4.2-1.18-7.2Z"/>
      </g>
      <text class="cls-7" transform="translate(145.06 51.56)"><tspan class="cls-8" x="-5" y="0">ADU</tspan><tspan class="cls-10" x="67.18" y="0">L</tspan><tspan class="cls-8" x="85.02" y="0">T</tspan><tspan class="cls-4" x="105.77" y="0">E</tspan><tspan class="cls-3" x="127.31" y="0">N</tspan><tspan class="cls-2" x="150.42" y="0">D</tspan><tspan class="cls-4" x="172.11" y="0">OSCOPIC</tspan><tspan class="cls-11" x="0" y="36.35">SPI</tspan><tspan class="cls-9" x="53.16" y="36.35">N</tspan><tspan class="cls-11" x="76.15" y="36.35">E</tspan><tspan class="cls-4" x="90.87" y="36.35">SURGE</tspan><tspan class="cls-5" x="205.06" y="36.35">R</tspan><tspan class="cls-4" x="226.42" y="36.35">Y</tspan></text>
    </g>
  </g>
</svg>