<svg width="173" height="28" viewBox="0 0 173 28" fill="none" xmlns="http://www.w3.org/2000/svg">
<path d="M37.088 22.872C37.004 22.872 36.932 22.836 36.872 22.764C36.284 21.864 35.81 20.742 35.45 19.398C35.09 18.054 34.91 16.638 34.91 15.15C34.91 13.638 35.09 12.192 35.45 10.812C35.822 9.432 36.308 8.286 36.908 7.374C36.956 7.302 37.028 7.266 37.124 7.266H37.988C38.06 7.266 38.108 7.29 38.132 7.338C38.156 7.374 38.15 7.422 38.114 7.482C37.598 8.406 37.178 9.546 36.854 10.902C36.53 12.246 36.368 13.656 36.368 15.132C36.368 16.584 36.53 17.976 36.854 19.308C37.178 20.628 37.598 21.744 38.114 22.656C38.138 22.704 38.15 22.74 38.15 22.764C38.15 22.836 38.096 22.872 37.988 22.872H37.088ZM47.6854 10.614C47.8294 11.094 47.9014 11.658 47.9014 12.306V17.922C47.9014 18.906 47.5774 19.692 46.9294 20.28C46.2814 20.856 45.4354 21.144 44.3914 21.144C43.3834 21.144 42.5614 20.862 41.9254 20.298C41.3014 19.722 40.9894 18.978 40.9894 18.066V17.814C40.9894 17.694 41.0494 17.634 41.1694 17.634H42.0874C42.2074 17.634 42.2674 17.694 42.2674 17.814V17.958C42.2674 18.57 42.4654 19.068 42.8614 19.452C43.2574 19.836 43.7674 20.028 44.3914 20.028C45.0394 20.028 45.5734 19.83 45.9934 19.434C46.4134 19.026 46.6234 18.492 46.6234 17.832V15.204C46.6234 15.18 46.6114 15.168 46.5874 15.168C46.5634 15.156 46.5454 15.162 46.5334 15.186C46.0054 15.894 45.2134 16.248 44.1574 16.248C43.4014 16.248 42.7654 16.08 42.2494 15.744C41.7454 15.408 41.3614 14.934 41.0974 14.322C40.8454 13.818 40.7194 13.134 40.7194 12.27C40.7194 11.538 40.8094 10.938 40.9894 10.47C41.2414 9.774 41.6434 9.234 42.1954 8.85C42.7594 8.466 43.4494 8.274 44.2654 8.274C45.1294 8.274 45.8554 8.484 46.4434 8.904C47.0434 9.312 47.4574 9.882 47.6854 10.614ZM44.3194 15.132C44.8474 15.132 45.2914 15.006 45.6514 14.754C46.0234 14.49 46.2814 14.13 46.4254 13.674C46.5574 13.326 46.6234 12.84 46.6234 12.216C46.6234 11.7 46.5694 11.262 46.4614 10.902C46.3174 10.446 46.0594 10.08 45.6874 9.804C45.3154 9.528 44.8594 9.39 44.3194 9.39C43.8034 9.39 43.3594 9.522 42.9874 9.786C42.6154 10.038 42.3514 10.41 42.1954 10.902C42.0634 11.238 41.9974 11.694 41.9974 12.27C41.9974 12.882 42.0754 13.362 42.2314 13.71C42.3754 14.142 42.6274 14.49 42.9874 14.754C43.3474 15.006 43.7914 15.132 44.3194 15.132ZM57.2701 15.492C57.3781 16.02 57.4321 16.56 57.4321 17.112C57.4321 17.7 57.3781 18.204 57.2701 18.624C57.0661 19.392 56.6581 20.004 56.0461 20.46C55.4341 20.904 54.6961 21.126 53.8321 21.126C52.9801 21.126 52.2541 20.91 51.6541 20.478C51.0541 20.046 50.6461 19.47 50.4301 18.75C50.3461 18.486 50.2921 18.222 50.2681 17.958V17.922C50.2681 17.826 50.3221 17.778 50.4301 17.778H51.3841C51.5041 17.778 51.5701 17.838 51.5821 17.958C51.5821 18.03 51.6061 18.15 51.6541 18.318C51.7741 18.834 52.0201 19.248 52.3921 19.56C52.7761 19.86 53.2501 20.01 53.8141 20.01C54.3901 20.01 54.8701 19.848 55.2541 19.524C55.6501 19.2 55.9081 18.756 56.0281 18.192C56.1001 17.916 56.1361 17.556 56.1361 17.112C56.1361 16.704 56.1061 16.314 56.0461 15.942C55.9621 15.39 55.7221 14.97 55.3261 14.682C54.9301 14.394 54.4381 14.25 53.8501 14.25C53.3221 14.25 52.8481 14.37 52.4281 14.61C52.0081 14.85 51.7381 15.168 51.6181 15.564C51.5821 15.672 51.5161 15.726 51.4201 15.726H50.4481C50.3281 15.726 50.2681 15.666 50.2681 15.546V8.58C50.2681 8.46 50.3281 8.4 50.4481 8.4H56.7481C56.8681 8.4 56.9281 8.46 56.9281 8.58V9.336C56.9281 9.456 56.8681 9.516 56.7481 9.516H51.6181C51.5701 9.516 51.5461 9.54 51.5461 9.588L51.5281 13.944C51.5281 13.968 51.5341 13.986 51.5461 13.998C51.5701 14.01 51.5941 14.004 51.6181 13.98C51.9181 13.704 52.2721 13.494 52.6801 13.35C53.0881 13.194 53.5201 13.116 53.9761 13.116C54.8281 13.116 55.5481 13.326 56.1361 13.746C56.7241 14.154 57.1021 14.736 57.2701 15.492ZM66.9662 16.374C67.0862 16.374 67.1462 16.434 67.1462 16.554V17.346C67.1462 17.466 67.0862 17.526 66.9662 17.526H66.1922C66.1442 17.526 66.1202 17.55 66.1202 17.598V20.82C66.1202 20.94 66.0602 21 65.9402 21H65.0222C64.9022 21 64.8422 20.94 64.8422 20.82V17.598C64.8422 17.55 64.8182 17.526 64.7702 17.526H59.3882C59.2682 17.526 59.2082 17.466 59.2082 17.346V16.68C59.2082 16.62 59.2262 16.548 59.2622 16.464L62.9522 8.526C62.9882 8.442 63.0542 8.4 63.1502 8.4H64.1042C64.1642 8.4 64.2062 8.424 64.2302 8.472C64.2662 8.508 64.2722 8.556 64.2482 8.616L60.6662 16.284C60.6542 16.308 60.6542 16.332 60.6662 16.356C60.6782 16.368 60.6962 16.374 60.7202 16.374H64.7702C64.8182 16.374 64.8422 16.35 64.8422 16.302V13.404C64.8422 13.284 64.9022 13.224 65.0222 13.224H65.9402C66.0602 13.224 66.1202 13.284 66.1202 13.404V16.302C66.1202 16.35 66.1442 16.374 66.1922 16.374H66.9662ZM70.8502 7.266C70.9342 7.266 71.0062 7.302 71.0662 7.374C71.6422 8.274 72.1102 9.396 72.4702 10.74C72.8302 12.084 73.0102 13.5 73.0102 14.988C73.0102 16.512 72.8242 17.964 72.4522 19.344C72.0922 20.724 71.6122 21.864 71.0122 22.764C70.9642 22.836 70.8922 22.872 70.7962 22.872H69.9502C69.8782 22.872 69.8302 22.848 69.8062 22.8C69.7822 22.764 69.7882 22.716 69.8242 22.656C70.3402 21.732 70.7602 20.598 71.0842 19.254C71.4082 17.898 71.5702 16.488 71.5702 15.024C71.5702 13.572 71.4082 12.18 71.0842 10.848C70.7602 9.516 70.3402 8.394 69.8242 7.482C69.8002 7.434 69.7882 7.398 69.7882 7.374C69.7882 7.302 69.8422 7.266 69.9502 7.266H70.8502ZM79.2731 19.794C79.2371 19.854 79.2491 19.884 79.3091 19.884H84.9611C85.0811 19.884 85.1411 19.944 85.1411 20.064V20.82C85.1411 20.94 85.0811 21 84.9611 21H77.7791C77.6591 21 77.5991 20.94 77.5991 20.82V20.064C77.5991 19.98 77.6291 19.908 77.6891 19.848C78.0971 19.368 79.0151 18.24 80.4431 16.464L81.7751 14.808C82.9031 13.38 83.4671 12.27 83.4671 11.478C83.4671 10.842 83.2511 10.332 82.8191 9.948C82.3871 9.564 81.8231 9.372 81.1271 9.372C80.4431 9.372 79.8911 9.57 79.4711 9.966C79.0511 10.35 78.8471 10.86 78.8591 11.496V12.054C78.8591 12.174 78.7991 12.234 78.6791 12.234H77.7431C77.6231 12.234 77.5631 12.174 77.5631 12.054V11.334C77.5871 10.41 77.9291 9.666 78.5891 9.102C79.2611 8.538 80.1071 8.256 81.1271 8.256C81.8471 8.256 82.4831 8.394 83.0351 8.67C83.5871 8.946 84.0131 9.33 84.3131 9.822C84.6131 10.302 84.7631 10.848 84.7631 11.46C84.7631 12.48 84.1991 13.71 83.0711 15.15C82.4831 15.906 81.3491 17.298 79.6691 19.326L79.2731 19.794ZM88.9235 19.794C88.8875 19.854 88.8995 19.884 88.9595 19.884H94.6115C94.7315 19.884 94.7915 19.944 94.7915 20.064V20.82C94.7915 20.94 94.7315 21 94.6115 21H87.4295C87.3095 21 87.2495 20.94 87.2495 20.82V20.064C87.2495 19.98 87.2795 19.908 87.3395 19.848C87.7475 19.368 88.6655 18.24 90.0935 16.464L91.4255 14.808C92.5535 13.38 93.1175 12.27 93.1175 11.478C93.1175 10.842 92.9015 10.332 92.4695 9.948C92.0375 9.564 91.4735 9.372 90.7775 9.372C90.0935 9.372 89.5415 9.57 89.1215 9.966C88.7015 10.35 88.4975 10.86 88.5095 11.496V12.054C88.5095 12.174 88.4495 12.234 88.3295 12.234H87.3935C87.2735 12.234 87.2135 12.174 87.2135 12.054V11.334C87.2375 10.41 87.5795 9.666 88.2395 9.102C88.9115 8.538 89.7575 8.256 90.7775 8.256C91.4975 8.256 92.1335 8.394 92.6855 8.67C93.2375 8.946 93.6635 9.33 93.9635 9.822C94.2635 10.302 94.4135 10.848 94.4135 11.46C94.4135 12.48 93.8495 13.71 92.7215 15.15C92.1335 15.906 90.9995 17.298 89.3195 19.326L88.9235 19.794ZM103.472 15.042C103.712 15.63 103.832 16.332 103.832 17.148C103.832 17.808 103.742 18.39 103.562 18.894C103.322 19.614 102.914 20.172 102.338 20.568C101.774 20.952 101.072 21.144 100.232 21.144C99.3924 21.144 98.6724 20.928 98.0724 20.496C97.4724 20.052 97.0584 19.458 96.8304 18.714C96.7224 18.378 96.6564 17.922 96.6324 17.346C96.6324 17.226 96.6924 17.166 96.8124 17.166H97.7304C97.8504 17.166 97.9104 17.226 97.9104 17.346C97.9344 17.694 97.9764 18.018 98.0364 18.318C98.1684 18.846 98.4204 19.266 98.7924 19.578C99.1764 19.878 99.6504 20.028 100.214 20.028C101.294 20.028 101.996 19.548 102.32 18.588C102.464 18.192 102.536 17.7 102.536 17.112C102.536 16.392 102.44 15.804 102.248 15.348C101.864 14.484 101.186 14.052 100.214 14.052C100.034 14.052 99.8124 14.118 99.5484 14.25C99.5004 14.274 99.4644 14.286 99.4404 14.286C99.3924 14.286 99.3504 14.256 99.3144 14.196L98.8464 13.566C98.7864 13.47 98.7924 13.386 98.8644 13.314L102.032 9.606C102.068 9.546 102.056 9.516 101.996 9.516H96.9204C96.8004 9.516 96.7404 9.456 96.7404 9.336V8.58C96.7404 8.46 96.8004 8.4 96.9204 8.4H103.58C103.7 8.4 103.76 8.46 103.76 8.58V9.462C103.76 9.522 103.73 9.594 103.67 9.678L100.79 13.134C100.766 13.158 100.76 13.182 100.772 13.206C100.784 13.218 100.808 13.224 100.844 13.224C102.128 13.308 103.004 13.914 103.472 15.042ZM105.878 15.96C105.758 15.96 105.698 15.9 105.698 15.78V15.024C105.698 14.904 105.758 14.844 105.878 14.844H111.206C111.326 14.844 111.386 14.904 111.386 15.024V15.78C111.386 15.9 111.326 15.96 111.206 15.96H105.878ZM120.27 15.492C120.378 16.02 120.432 16.56 120.432 17.112C120.432 17.7 120.378 18.204 120.27 18.624C120.066 19.392 119.658 20.004 119.046 20.46C118.434 20.904 117.696 21.126 116.832 21.126C115.98 21.126 115.254 20.91 114.654 20.478C114.054 20.046 113.646 19.47 113.43 18.75C113.346 18.486 113.292 18.222 113.268 17.958V17.922C113.268 17.826 113.322 17.778 113.43 17.778H114.384C114.504 17.778 114.57 17.838 114.582 17.958C114.582 18.03 114.606 18.15 114.654 18.318C114.774 18.834 115.02 19.248 115.392 19.56C115.776 19.86 116.25 20.01 116.814 20.01C117.39 20.01 117.87 19.848 118.254 19.524C118.65 19.2 118.908 18.756 119.028 18.192C119.1 17.916 119.136 17.556 119.136 17.112C119.136 16.704 119.106 16.314 119.046 15.942C118.962 15.39 118.722 14.97 118.326 14.682C117.93 14.394 117.438 14.25 116.85 14.25C116.322 14.25 115.848 14.37 115.428 14.61C115.008 14.85 114.738 15.168 114.618 15.564C114.582 15.672 114.516 15.726 114.42 15.726H113.448C113.328 15.726 113.268 15.666 113.268 15.546V8.58C113.268 8.46 113.328 8.4 113.448 8.4H119.748C119.868 8.4 119.928 8.46 119.928 8.58V9.336C119.928 9.456 119.868 9.516 119.748 9.516H114.618C114.57 9.516 114.546 9.54 114.546 9.588L114.528 13.944C114.528 13.968 114.534 13.986 114.546 13.998C114.57 14.01 114.594 14.004 114.618 13.98C114.918 13.704 115.272 13.494 115.68 13.35C116.088 13.194 116.52 13.116 116.976 13.116C117.828 13.116 118.548 13.326 119.136 13.746C119.724 14.154 120.102 14.736 120.27 15.492ZM129.966 16.374C130.086 16.374 130.146 16.434 130.146 16.554V17.346C130.146 17.466 130.086 17.526 129.966 17.526H129.192C129.144 17.526 129.12 17.55 129.12 17.598V20.82C129.12 20.94 129.06 21 128.94 21H128.022C127.902 21 127.842 20.94 127.842 20.82V17.598C127.842 17.55 127.818 17.526 127.77 17.526H122.388C122.268 17.526 122.208 17.466 122.208 17.346V16.68C122.208 16.62 122.226 16.548 122.262 16.464L125.952 8.526C125.988 8.442 126.054 8.4 126.15 8.4H127.104C127.164 8.4 127.206 8.424 127.23 8.472C127.266 8.508 127.272 8.556 127.248 8.616L123.666 16.284C123.654 16.308 123.654 16.332 123.666 16.356C123.678 16.368 123.696 16.374 123.72 16.374H127.77C127.818 16.374 127.842 16.35 127.842 16.302V13.404C127.842 13.284 127.902 13.224 128.022 13.224H128.94C129.06 13.224 129.12 13.284 129.12 13.404V16.302C129.12 16.35 129.144 16.374 129.192 16.374H129.966ZM139.178 15.708C139.406 16.2 139.52 16.788 139.52 17.472C139.52 18.3 139.346 19.002 138.998 19.578C138.71 20.07 138.302 20.454 137.774 20.73C137.246 21.006 136.634 21.144 135.938 21.144C135.218 21.144 134.588 21.006 134.048 20.73C133.508 20.442 133.094 20.028 132.806 19.488C132.47 18.888 132.302 18.21 132.302 17.454C132.302 16.818 132.428 16.218 132.68 15.654C132.956 15.054 133.394 14.604 133.994 14.304C134.054 14.28 134.054 14.25 133.994 14.214C133.598 13.986 133.274 13.68 133.022 13.296C132.662 12.78 132.482 12.192 132.482 11.532C132.482 10.86 132.662 10.248 133.022 9.696C133.31 9.228 133.706 8.868 134.21 8.616C134.726 8.352 135.302 8.22 135.938 8.22C136.598 8.22 137.174 8.352 137.666 8.616C138.158 8.868 138.548 9.228 138.836 9.696C139.184 10.26 139.358 10.872 139.358 11.532C139.358 12.192 139.178 12.792 138.818 13.332C138.602 13.656 138.284 13.95 137.864 14.214C137.804 14.25 137.804 14.28 137.864 14.304C138.476 14.604 138.914 15.072 139.178 15.708ZM134.03 10.47C133.838 10.83 133.742 11.184 133.742 11.532C133.742 12.036 133.868 12.474 134.12 12.846C134.312 13.146 134.558 13.374 134.858 13.53C135.17 13.686 135.524 13.764 135.92 13.764C136.316 13.764 136.67 13.686 136.982 13.53C137.294 13.362 137.546 13.128 137.738 12.828C137.966 12.504 138.08 12.066 138.08 11.514C138.08 11.118 137.99 10.758 137.81 10.434C137.63 10.098 137.378 9.834 137.054 9.642C136.73 9.438 136.346 9.336 135.902 9.336C135.482 9.336 135.11 9.438 134.786 9.642C134.462 9.846 134.21 10.122 134.03 10.47ZM137.792 19.092C138.092 18.636 138.242 18.066 138.242 17.382C138.242 16.818 138.146 16.332 137.954 15.924C137.594 15.132 136.916 14.736 135.92 14.736C134.972 14.736 134.312 15.108 133.94 15.852C133.724 16.236 133.616 16.752 133.616 17.4C133.616 18.072 133.748 18.618 134.012 19.038C134.42 19.698 135.062 20.028 135.938 20.028C136.79 20.028 137.408 19.716 137.792 19.092ZM148.367 15.042C148.607 15.63 148.727 16.332 148.727 17.148C148.727 17.808 148.637 18.39 148.457 18.894C148.217 19.614 147.809 20.172 147.233 20.568C146.669 20.952 145.967 21.144 145.127 21.144C144.287 21.144 143.567 20.928 142.967 20.496C142.367 20.052 141.953 19.458 141.725 18.714C141.617 18.378 141.551 17.922 141.527 17.346C141.527 17.226 141.587 17.166 141.707 17.166H142.625C142.745 17.166 142.805 17.226 142.805 17.346C142.829 17.694 142.871 18.018 142.931 18.318C143.063 18.846 143.315 19.266 143.687 19.578C144.071 19.878 144.545 20.028 145.109 20.028C146.189 20.028 146.891 19.548 147.215 18.588C147.359 18.192 147.431 17.7 147.431 17.112C147.431 16.392 147.335 15.804 147.143 15.348C146.759 14.484 146.081 14.052 145.109 14.052C144.929 14.052 144.707 14.118 144.443 14.25C144.395 14.274 144.359 14.286 144.335 14.286C144.287 14.286 144.245 14.256 144.209 14.196L143.741 13.566C143.681 13.47 143.687 13.386 143.759 13.314L146.927 9.606C146.963 9.546 146.951 9.516 146.891 9.516H141.815C141.695 9.516 141.635 9.456 141.635 9.336V8.58C141.635 8.46 141.695 8.4 141.815 8.4H148.475C148.595 8.4 148.655 8.46 148.655 8.58V9.462C148.655 9.522 148.625 9.594 148.565 9.678L145.685 13.134C145.661 13.158 145.655 13.182 145.667 13.206C145.679 13.218 145.703 13.224 145.739 13.224C147.023 13.308 147.899 13.914 148.367 15.042Z" fill="#112A63"/>
<rect x="0.5" y="2.5" width="23.7059" height="23" rx="2.5" stroke="#112A63"/>
<path d="M19.5437 17.3062L16.0436 15.8061C15.8941 15.7424 15.728 15.729 15.5701 15.7679C15.4123 15.8068 15.2714 15.8959 15.1686 16.0218L13.6186 17.9156C11.186 16.7686 9.22828 14.8109 8.08132 12.3783L9.9751 10.8282C10.1013 10.7256 10.1905 10.5847 10.2295 10.4268C10.2684 10.269 10.2548 10.1027 10.1907 9.95322L8.69071 6.45316C8.62043 6.29204 8.49613 6.16048 8.33925 6.08119C8.18236 6.00189 8.00273 5.97982 7.83132 6.01878L4.58126 6.76879C4.416 6.80696 4.26855 6.90001 4.16298 7.03276C4.05742 7.16552 3.99996 7.33013 4 7.49974C4 15.5155 10.497 22 18.5003 22C18.6699 22.0001 18.8346 21.9427 18.9674 21.8371C19.1002 21.7315 19.1933 21.5841 19.2315 21.4187L19.9815 18.1687C20.0202 17.9964 19.9977 17.8161 19.9178 17.6587C19.8379 17.5012 19.7056 17.3766 19.5437 17.3062Z" fill="#112A63"/>
</svg>
